<svg aria-hidden="true" style="position: absolute; width: 0; height: 0; overflow: hidden;" version="1.1" xmlns="http://www.w3.org/2000/svg" xmlns:xlink="http://www.w3.org/1999/xlink">
<defs>
<symbol id="icon-Path-65" viewBox="0 0 90 32">
<path fill="#0f7f25" style="fill: var(--color1, #0f7f25)" d="M72.727 0.165v3.892c8.882 2.753 13.962 6.642 13.962 10.303 0 6.619-17.078 13.993-41.544 13.993s-41.483-7.374-41.483-13.993c0-3.742 5.351-7.72 14.62-10.477v-3.88c-11.198 3.15-18.282 8.306-18.282 14.357 0 10.058 19.394 17.643 45.144 17.643s45.206-7.584 45.206-17.643c0-5.947-6.812-11.033-17.617-14.196z"></path>
</symbol>
<symbol id="icon-Path-66" viewBox="0 0 107 32">
<path fill="#0f7f25" style="fill: var(--color1, #0f7f25)" d="M53.272 32c-26.472 0-53.272-6.182-53.272-18.007 0-3.838 2.883-9.283 16.614-13.42 0.289-0.097 0.621-0.152 0.966-0.152 1.735 0 3.142 1.407 3.142 3.142 0 1.435-0.962 2.645-2.275 3.021l-0.022 0.005c-9.605 2.895-12.145 6.11-12.145 7.407 0 3.976 16.585 11.714 46.991 11.714s46.991-7.738 46.991-11.714c0-1.407-2.843-4.855-13.635-7.838-1.358-0.365-2.342-1.586-2.342-3.036 0-1.734 1.406-3.139 3.139-3.139 0.312 0 0.613 0.045 0.897 0.13l-0.022-0.006c11.937 3.298 18.244 8.103 18.244 13.889 0 11.813-26.799 18.007-53.272 18.007z"></path>
</symbol>
<symbol id="icon-Path-67" viewBox="0 0 21 32">
<path fill="#0f7f25" style="fill: var(--color1, #0f7f25)" d="M10.278 2.166c-2.098 2.709-8.605 11.653-8.605 18.378 0 8.768 4.911 9.784 8.605 9.784s8.605-1.014 8.605-9.784c0-6.73-6.507-15.67-8.605-18.378zM10.278 32c-6.817 0-10.278-3.854-10.278-11.456 0-8.585 9.242-19.785 9.634-20.258 0.159-0.176 0.389-0.286 0.644-0.286s0.484 0.11 0.643 0.285l0.001 0.001c0.393 0.473 9.635 11.678 9.635 20.258 0 7.602-3.458 11.456-10.279 11.456z"></path>
</symbol>
<symbol id="icon-Path-68" viewBox="0 0 19 32">
<path fill="#0f7f25" style="fill: var(--color1, #0f7f25)" d="M1.79 31.658c-1.070-0.544-1.79-1.636-1.79-2.897 0-0.528 0.126-1.026 0.35-1.467l-0.009 0.018 12.765-25.525c0.529-1.112 1.643-1.867 2.934-1.867 1.789 0 3.239 1.45 3.239 3.239 0 0.558-0.141 1.083-0.39 1.542l0.008-0.017-12.765 25.525c-0.545 1.069-1.637 1.789-2.897 1.789-0.527 0-1.024-0.126-1.464-0.349l0.018 0.009z"></path>
</symbol>
<symbol id="icon-Group-256" viewBox="0 0 34 32">
<path fill="#fff" style="fill: var(--color2, #fff)" d="M4.56 17.712h-2.607c-1.079 0-1.954-0.875-1.954-1.954s0.875-1.954 1.954-1.954v0h2.607c1.079 0 1.954 0.875 1.954 1.954s-0.875 1.954-1.954 1.954v0z"></path>
<path fill="#fff" style="fill: var(--color2, #fff)" d="M13.566 17.712h-2.604c-1.079 0-1.954-0.875-1.954-1.954s0.875-1.954 1.954-1.954v0h2.604c1.079 0 1.954 0.875 1.954 1.954s-0.875 1.954-1.954 1.954v0z"></path>
<path fill="#fff" style="fill: var(--color2, #fff)" d="M19.971 17.712c-1.079 0-1.954-0.875-1.954-1.954s0.875-1.954 1.954-1.954v0h2.607c1.079 0 1.954 0.875 1.954 1.954s-0.875 1.954-1.954 1.954v0z"></path>
<path fill="#fff" style="fill: var(--color2, #fff)" d="M28.977 17.712c-1.079 0-1.954-0.875-1.954-1.954s0.875-1.954 1.954-1.954v0h2.607c1.079 0 1.954 0.875 1.954 1.954s-0.875 1.954-1.954 1.954v0z"></path>
<path fill="#fff" style="fill: var(--color2, #fff)" d="M4.973 10.707l-2.521 0.66c-0.149 0.041-0.32 0.064-0.496 0.064-1.079 0-1.954-0.875-1.954-1.954 0-0.903 0.612-1.663 1.444-1.887l0.014-0.003 2.521-0.662c0.137-0.035 0.295-0.054 0.458-0.054 1.080 0 1.955 0.875 1.955 1.955 0 0.889-0.594 1.64-1.407 1.877l-0.014 0.003z"></path>
<path fill="#fff" style="fill: var(--color2, #fff)" d="M13.682 8.414l-2.521 0.662c-0.149 0.041-0.321 0.064-0.498 0.064-0.903 0-1.663-0.613-1.887-1.446l-0.003-0.014c-0.041-0.149-0.064-0.32-0.064-0.496 0-0.903 0.613-1.664 1.445-1.888l0.014-0.003 2.521-0.662c0.127-0.029 0.273-0.046 0.422-0.046 1.080 0 1.956 0.875 1.956 1.955 0 0.877-0.577 1.618-1.371 1.867l-0.014 0.004z"></path>
<path fill="#fff" style="fill: var(--color2, #fff)" d="M18.884 3.014l2.521-0.662c0.171-0.054 0.367-0.085 0.57-0.085 1.080 0 1.956 0.876 1.956 1.956 0 0.93-0.65 1.709-1.52 1.907l-0.013 0.003-2.521 0.662c-0.171 0.054-0.367 0.085-0.57 0.085-1.080 0-1.956-0.875-1.956-1.955 0-0.93 0.65-1.709 1.52-1.907l0.013-0.002z"></path>
<path fill="#fff" style="fill: var(--color2, #fff)" d="M27.594 0.726l2.521-0.662c0.171-0.054 0.367-0.085 0.57-0.085 1.080 0 1.956 0.875 1.956 1.956 0 0.93-0.65 1.709-1.52 1.907l-0.013 0.002-2.521 0.662c-0.171 0.054-0.367 0.085-0.57 0.085-1.080 0-1.956-0.875-1.956-1.955 0-0.93 0.65-1.709 1.52-1.907l0.013-0.002z"></path>
<path fill="#fff" style="fill: var(--color2, #fff)" d="M2.453 20.633l2.521 0.662c0.846 0.227 1.458 0.987 1.458 1.89 0 1.079-0.875 1.954-1.954 1.954-0.176 0-0.347-0.023-0.51-0.067l0.014 0.003-2.521-0.662c-0.846-0.227-1.458-0.987-1.458-1.89 0-1.079 0.875-1.954 1.954-1.954 0.176 0 0.347 0.023 0.51 0.067l-0.014-0.003z"></path>
<path fill="#fff" style="fill: var(--color2, #fff)" d="M8.776 24.316c0.228-0.846 0.988-1.459 1.891-1.459 0.176 0 0.347 0.023 0.51 0.067l-0.014-0.003 2.521 0.662c0.846 0.227 1.458 0.987 1.458 1.89 0 1.079-0.875 1.954-1.954 1.954-0.176 0-0.347-0.023-0.51-0.067l0.014 0.003-2.521-0.662c-0.846-0.227-1.459-0.987-1.459-1.89 0-0.176 0.023-0.347 0.067-0.509l-0.003 0.014z"></path>
<path fill="#fff" style="fill: var(--color2, #fff)" d="M19.885 25.207l2.521 0.66c0.827 0.241 1.421 0.991 1.421 1.881 0 1.080-0.875 1.956-1.956 1.956-0.162 0-0.32-0.020-0.471-0.057l0.013 0.003-2.521-0.662c-0.884-0.2-1.533-0.979-1.533-1.909 0-1.080 0.875-1.956 1.956-1.956 0.203 0 0.4 0.031 0.584 0.089l-0.014-0.004z"></path>
<path fill="#fff" style="fill: var(--color2, #fff)" d="M28.586 27.494l2.521 0.662c0.884 0.2 1.533 0.979 1.533 1.909 0 1.080-0.875 1.955-1.956 1.955-0.203 0-0.4-0.031-0.584-0.089l0.014 0.004-2.521-0.662c-0.846-0.227-1.458-0.987-1.458-1.89 0-1.079 0.875-1.954 1.954-1.954 0.176 0 0.347 0.023 0.51 0.067l-0.014-0.003z"></path>
</symbol>
<symbol id="icon-Path-121" viewBox="0 0 12 32">
<path fill="#fff" style="fill: var(--color2, #fff)" d="M1.211 8.052h0.772v-1.495c0-0.462 0.374-0.836 0.836-0.836v0h0.757v-5.184c0-0.296 0.24-0.536 0.536-0.536v0h3.749c0.296 0 0.536 0.24 0.536 0.536v0.557c-0.453 0-0.82 0.367-0.82 0.82s0.367 0.82 0.82 0.82v0 2.987h0.757c0.462 0 0.836 0.374 0.836 0.836v0 1.495h0.774c0.669 0 1.212 0.542 1.212 1.211v21.525c0 0.669-0.543 1.212-1.212 1.212h-9.553c-0.669 0-1.211-0.542-1.211-1.211 0-0 0-0 0-0.001v0-21.523c0-0.001 0-0.002 0-0.003 0-0.669 0.542-1.211 1.211-1.211 0 0 0 0 0 0v0zM7.414 3.424c-0.497-0.326-0.82-0.881-0.82-1.511 0-0.343 0.096-0.664 0.263-0.938l-0.005 0.008h-2.292v4.737h2.853zM9.007 6.704h-6.039v1.347h6.039zM0.984 30.788c0 0.126 0.102 0.227 0.228 0.228h9.553c0 0 0 0 0 0 0.126 0 0.228-0.102 0.228-0.228v-21.522c-0-0.126-0.102-0.228-0.228-0.228 0 0 0 0 0 0h-9.553c-0.126 0-0.227 0.102-0.228 0.228v0z"></path>
</symbol>
<symbol id="icon-Group-258" viewBox="0 0 32 32">
<path fill="#fff" style="fill: var(--color2, #fff)" d="M21.189 12.311c1.917 2.843 1.167 6.701-1.675 8.619s-6.701 1.167-8.619-1.675c-1.917-2.843-1.167-6.701 1.675-8.619s6.701-1.167 8.619 1.675z"></path>
<path fill="#fff" style="fill: var(--color2, #fff)" d="M10.75 8.215c0.717-0.484 0.906-1.457 0.422-2.173v0l-1.75-2.595c-0.483-0.717-1.457-0.906-2.173-0.422v0c-0.717 0.483-0.906 1.457-0.422 2.173v0l1.75 2.595c0.483 0.717 1.457 0.906 2.173 0.422v0z"></path>
<path fill="#fff" style="fill: var(--color2, #fff)" d="M4.947 15.444c0.392 0.079 0.815 0.007 1.173-0.235 0-0 0-0 0.001-0l-0 0c0-0 0-0 0-0 0.359-0.242 0.586-0.608 0.661-1.002l0-0c0.076-0.393 0.003-0.815-0.239-1.173s-0.605-0.585-0.998-0.661v0l-3.072-0.597c-0.393-0.076-0.815-0.003-1.173 0.239s-0.585 0.605-0.661 0.998v0c-0.077 0.393-0.004 0.816 0.237 1.175s0.606 0.585 1 0.66l0 0z"></path>
<path fill="#fff" style="fill: var(--color2, #fff)" d="M5.197 25.174l2.595-1.75c0.717-0.483 0.906-1.457 0.422-2.173v0c-0.484-0.716-1.456-0.904-2.172-0.421l-2.595 1.75c-0.717 0.483-0.906 1.457-0.422 2.173v0c0.484 0.716 1.456 0.904 2.173 0.421v0z"></path>
<path fill="#fff" style="fill: var(--color2, #fff)" d="M14.85 30.126l0.597-3.072c0.076-0.393 0.003-0.815-0.239-1.173s-0.605-0.585-0.998-0.661v0c-0.393-0.077-0.816-0.004-1.175 0.237s-0.585 0.606-0.66 1l-0 0-0.597 3.072c-0.077 0.393-0.004 0.816 0.237 1.175s0.606 0.585 1 0.66l0 0c0.393 0.078 0.816 0.006 1.175-0.236l0-0c0.358-0.243 0.584-0.608 0.66-1.002v-0z"></path>
<path fill="#fff" style="fill: var(--color2, #fff)" d="M24.753 28.975c0.717-0.483 0.906-1.457 0.422-2.173v0l-1.75-2.595c-0.483-0.717-1.457-0.906-2.173-0.422v0c-0.717 0.483-0.906 1.457-0.422 2.173v0l1.75 2.595c0.483 0.717 1.457 0.906 2.173 0.422v0z"></path>
<path fill="#fff" style="fill: var(--color2, #fff)" d="M25.218 17.794c-0.076 0.393-0.003 0.815 0.239 1.173s0.605 0.585 0.998 0.661v0l3.072 0.597c0.394 0.077 0.817 0.004 1.177-0.237l0-0c0.358-0.243 0.583-0.607 0.659-1.001l0-0c0.076-0.393 0.003-0.815-0.239-1.173s-0.605-0.585-0.998-0.661v0l-3.072-0.597c-0.394-0.078-0.817-0.005-1.176 0.237s-0.585 0.607-0.66 1.001l-0 0z"></path>
<path fill="#fff" style="fill: var(--color2, #fff)" d="M23.786 10.749c0.483 0.717 1.457 0.906 2.173 0.422v0l2.595-1.75c0.717-0.483 0.906-1.457 0.422-2.173v0c-0.483-0.717-1.457-0.906-2.173-0.422v0l-2.595 1.75c-0.717 0.483-0.906 1.457-0.422 2.173v0z"></path>
<path fill="#fff" style="fill: var(--color2, #fff)" d="M18.966 6.543c0.357-0.242 0.582-0.607 0.657-1l0-0 0.597-3.072c0.076-0.393 0.003-0.815-0.239-1.173s-0.605-0.585-0.998-0.661v0c-0.393-0.076-0.815-0.003-1.173 0.239s-0.585 0.605-0.661 0.998v0l-0.597 3.072c-0.076 0.393-0.003 0.815 0.239 1.173s0.605 0.585 0.998 0.661v0c0.394 0.078 0.818 0.005 1.177-0.237 0-0 0-0 0-0v0z"></path>
</symbol>
<symbol id="icon-Path-102" viewBox="0 0 31 32">
<path fill="#fff" style="fill: var(--color2, #fff)" d="M26.67 10.863c-2.532-4.256-6.987-6.892-11.818-7.076l-0.105 0 0.001-0.746c0-0.038-0.005-0.081-0.016-0.123-0.068-0.253-0.328-0.403-0.58-0.335-0.21 0.056-0.35 0.246-0.351 0.454l0 0.003-0.001 0.741c-1.065 0.007-2.248 0.164-3.425 0.48-3.713 0.995-6.683 3.379-8.501 6.444l0.002-0.003c-0.086 0.15-0.134 0.322-0.135 0.5l0 0.007 0 1.588c-0 0.043 0.005 0.090 0.018 0.137 0.062 0.233 0.271 0.388 0.501 0.392l0.004-0 5.057 0.034c0.042 0 0.089-0.005 0.136-0.018 0.183-0.049 0.318-0.189 0.369-0.358l0.001-0.003 0.201-0.685 0.471 0.813c0.095 0.16 0.265 0.259 0.447 0.261l0.004-0 4.844 0.033-0.009 16.126c-0 0.038 0.005 0.081 0.016 0.123 0.056 0.211 0.246 0.35 0.454 0.351l0.003-0c0.038 0.001 0.080-0.005 0.123-0.016 0-0 0.001-0 0.001-0h-0c0.211-0.057 0.35-0.247 0.351-0.455l-0-0.003 0.009-16.12 4.838 0.032c0.045 0.001 0.096-0.005 0.146-0.018 0.139-0.037 0.251-0.127 0.318-0.242l-0 0 0.47-0.803 0.202 0.694c0.065 0.228 0.272 0.379 0.499 0.38l0.004-0 5.053 0.035c0.043 0 0.091-0.005 0.138-0.018 0-0 0.001-0 0.001-0h-0c0-0 0.001-0 0.001-0 0.093-0.025 0.173-0.073 0.237-0.137l-0.002 0.002 0.155-0.176 0.001-1.785c0.001-0.084-0.010-0.177-0.035-0.269-0.024-0.088-0.058-0.17-0.101-0.245l0.003 0.006zM25.471 10.746l-4.357-0.030c-0.020-0.488-0.103-1.033-0.249-1.576-0.401-1.498-1.224-2.77-2.305-3.724l0.024 0.023c2.798 0.947 5.203 2.766 6.836 5.224l0.050 0.083zM7.432 10.625l-4.372-0.029c1.575-2.389 3.959-4.278 6.887-5.211l0.028-0.009c-0.126 0.109-0.253 0.217-0.373 0.336-1.283 1.318-2.057 3.032-2.169 4.858l-0.001 0.056zM10.269 6.384c0.659-0.677 1.53-1.205 2.539-1.476 0.503-0.135 1.008-0.197 1.505-0.192l-0.041 0.001c3.116 0.021 5.67 2.668 5.894 5.992l-11.787-0.077c0.108-1.627 0.78-3.107 1.865-4.225l0.025-0.024zM7.006 12.409l-4.316-0.029 0.005-0.839 4.556 0.031zM19.35 12.494l-10.152-0.069-0.489-0.841 11.131 0.074zM25.856 12.538l-4.316-0.032-0.244-0.841 4.561 0.030z"></path>
</symbol>
<symbol id="icon-child" viewBox="0 0 37 32">
<path fill="none" stroke="#fff" style="stroke: var(--color2, #fff)" stroke-linejoin="round" stroke-linecap="round" stroke-miterlimit="4" stroke-width="1.3924" d="M26.75 28.153c-2.267 1.958-5.243 3.151-8.497 3.151-5.351 0-9.948-3.225-11.955-7.837l-0.033-0.084-0.161-0.396c-1.107 1.106-3.473 1.798-4.58 0.692-0.512-0.513-0.829-1.221-0.829-2.003s0.317-1.49 0.829-2.003v0c0.517-0.512 1.23-0.829 2.016-0.829 0.642 0 1.235 0.211 1.713 0.568l-0.008-0.005h0.029c-0.032-0.374-0.049-0.751-0.049-1.133 0-0.005 0-0.012 0-0.018 0-3.247 1.193-6.216 3.165-8.492l-0.014 0.016"></path>
<path fill="none" stroke="#fff" style="stroke: var(--color2, #fff)" stroke-linejoin="round" stroke-linecap="round" stroke-miterlimit="4" stroke-width="1.3924" d="M10.233 7.999c2.196-1.701 4.986-2.732 8.016-2.748l0.004-0c7.194 0 13.027 5.832 13.027 13.027v0c0 0.382-0.016 0.76-0.049 1.133l-0.006 0.097c0.478-0.413 1.105-0.665 1.792-0.665 0.771 0 1.468 0.318 1.967 0.83l0.001 0.001c0.512 0.513 0.829 1.221 0.829 2.003s-0.317 1.49-0.829 2.003v0c-1.106 1.106-3.468 0.401-4.574-0.705l-0.163 0.401c-0.496 1.103-1.078 2.053-1.762 2.919l0.022-0.029"></path>
<path fill="none" stroke="#fff" style="stroke: var(--color2, #fff)" stroke-linejoin="round" stroke-linecap="round" stroke-miterlimit="4" stroke-width="1.3924" d="M18.254 5.251c0.010-0.107 0.015-0.232 0.015-0.358 0-2.238-1.76-4.064-3.971-4.172l-0.010-0"></path>
<path fill="none" stroke="#fff" style="stroke: var(--color2, #fff)" stroke-linejoin="round" stroke-linecap="round" stroke-miterlimit="4" stroke-width="1.3924" d="M21.086 1.853s-2.832-0.377-2.832 3.398"></path>
<path fill="#fff" style="fill: var(--color2, #fff); stroke: var(--color2, #fff)" stroke="#fff" stroke-linejoin="miter" stroke-linecap="butt" stroke-miterlimit="4" stroke-width="1.3924" d="M14.855 16.013c0 0.626-0.507 1.133-1.133 1.133s-1.133-0.507-1.133-1.133c0-0.626 0.507-1.133 1.133-1.133s1.133 0.507 1.133 1.133z"></path>
<path fill="#fff" style="fill: var(--color2, #fff); stroke: var(--color2, #fff)" stroke="#fff" stroke-linejoin="miter" stroke-linecap="butt" stroke-miterlimit="4" stroke-width="1.3924" d="M23.917 16.013c0 0.626-0.507 1.133-1.133 1.133s-1.133-0.507-1.133-1.133c0-0.626 0.507-1.133 1.133-1.133s1.133 0.507 1.133 1.133z"></path>
<path fill="none" stroke="#fff" style="stroke: var(--color2, #fff)" stroke-linejoin="round" stroke-linecap="round" stroke-miterlimit="4" stroke-width="1.3924" d="M22.658 21.55c-1.127 1.127-2.685 1.825-4.405 1.825s-3.278-0.697-4.405-1.825v0"></path>
</symbol>
<symbol id="icon-Line-32" viewBox="0 0 32 32">
<path fill="none" stroke="#fff" style="stroke: var(--color2, #fff)" stroke-linejoin="round" stroke-linecap="round" stroke-miterlimit="4" stroke-width="1.3421" d="mNaNclNaNNaNclNaNNaNNaNNaNclNaNNaNclNaNNaN"></path>
</symbol>
<symbol id="icon-eye" viewBox="0 0 39 32">
<path fill="none" stroke="#fff" style="stroke: var(--color2, #fff)" stroke-linejoin="round" stroke-linecap="round" stroke-miterlimit="4" stroke-width="1.5365" d="M34.468 16.802c1.064 0.93 2.018 1.929 2.878 3.007l0.036 0.046c0.203 0.262 0.325 0.594 0.325 0.956s-0.122 0.694-0.327 0.959l0.003-0.004c-2.177 2.843-9.237 9.466-18.113 9.466s-15.936-6.62-18.113-9.466c-0.203-0.262-0.325-0.594-0.325-0.956s0.122-0.694 0.327-0.959l-0.003 0.004c2.177-2.846 9.237-9.467 18.113-9.467"></path>
<path fill="none" stroke="#fff" style="stroke: var(--color2, #fff)" stroke-linejoin="round" stroke-linecap="round" stroke-miterlimit="4" stroke-width="1.5365" d="M29.689 20.809c0 0 0 0.001 0 0.002 0 5.756-4.666 10.422-10.422 10.422s-10.422-4.666-10.422-10.422c0-5.756 4.666-10.422 10.422-10.422v0"></path>
<path fill="none" stroke="#fff" style="stroke: var(--color2, #fff)" stroke-linejoin="round" stroke-linecap="round" stroke-miterlimit="4" stroke-width="1.5365" d="M23.804 19.207c0.173 0.476 0.273 1.025 0.273 1.597 0 2.653-2.151 4.804-4.804 4.804s-4.804-2.151-4.804-4.804c0-2.653 2.151-4.804 4.804-4.804 0.573 0 1.122 0.1 1.631 0.284l-0.033-0.011"></path>
<path fill="none" stroke="#fff" style="stroke: var(--color2, #fff)" stroke-linejoin="round" stroke-linecap="round" stroke-miterlimit="4" stroke-width="1.5365" d="M28.086 0.768s4.81 6.971 4.81 10.805c0 4.428-3.416 5.229-4.81 5.229s-4.81-0.801-4.81-5.229c0-3.834 4.81-10.805 4.81-10.805z"></path>
</symbol>
</defs>
</svg>
